# xmcd
#
# Track frame offsets:
#	150
#	18877
#	33902
#	54030
#	69900
#	86365
#	105362
#	121245
#	139227
#	160157
#	178310
#	195035
#	215792
#	232265
#	246070
#	264167
#	278825
#	294795
#	313730
#	328845
#
# Disc length: 4553 seconds
# Revision: 1
# Processed by: cddbd v1.5.2PL0 Copyright (c) Steve Scherf et al.
# Submitted via: dBpowerAMP V12.0
#
DISCID=0d11c714
DTITLE=Various Artist - Novo Millennium: Sertanejo
DYEAR=2002
DGENRE=Country
TTITLE0=Chitaozinho e Xoxoro - Encontro Casual
TTITLE1=Rio Negro e Solimoes - Temporal de Lagrimas
TTITLE2=Marlon e Maicon - Por te amar assim
TTITLE3=Roberta Miranda e Reginaldo Rossi - Amanha
TTITLE4=Joao Mineiro e Marciano - Cama Dividida
TTITLE5=Chitaozihno  Xororo e Roupa Nova - Frio da Solidao
TTITLE6=Rio Negro e Solimoes - To por ai
TTITLE7=Roberta Miranda - Eu acho que eu estou perdendo voce
TTITLE8=Rio Negro e Solimoes - So Lembrancas
TTITLE9=Adalberto e Adriano - Ternura
TTITLE10=Chitaozinho e Xororo - Frete
TTITLE11=Grupo Tradicao - Telefone Mudo - Som de Cristal
TTITLE12=Marlon e Maicon - Voce vai se arrepender
TTITLE13=Roberta Miranda - Sempre Mais
TTITLE14=Chitaozinho e Xororo - Eu e o sabia
TTITLE15=Paula Hunter - Eu quero ser feliz
TTITLE16=Joao Mineiro e Marciano - Depois Que Amanhece ( No Meiho Da Noite)
TTITLE17=Chitaozihno e Xororo - Medley Polkas-Galopeira-Va pro inferno com seu amor
TTITLE18=Roberta Miranda - Va Com Deus(Ao Vivo)
TTITLE19=Rio Negro e Solimoes - Bate o pe
EXTD=
EXTT0=
EXTT1=
EXTT2=
EXTT3=
EXTT4=
EXTT5=
EXTT6=
EXTT7=
EXTT8=
EXTT9=
EXTT10=
EXTT11=
EXTT12=
EXTT13=
EXTT14=
EXTT15=
EXTT16=
EXTT17=
EXTT18=
EXTT19=
PLAYORDER=
